# xmcd
#
# Track frame offsets:
#	150
#	13239
#	27352
#	43628
#	61494
#	80049
#	94607
#	106209
#	120364
#	133089
#	147862
#	160427
#
# Disc length: 2298 seconds
#
# Revision: 0
# Processed by: cddbd v1.5.2PL0 Copyright (c) Steve Scherf et al.
# Submitted via: EasyCDDAExtractor 2010.4.0.0
#
DISCID=a008f80c
DTITLE=Nolton Semien - Oh Lucille
DYEAR=2012
DGENRE=Creole
TTITLE0=La coucaracha
TTITLE1=Madeleine
TTITLE2=La pistache a Tante Nana
TTITLE3=Oh Lucille
TTITLE4=La fille la veuve
TTITLE5=Un jour a venir tu vas souffert
TTITLE6=Hold my false teeth
TTITLE7=Un femme que pas bon
TTITLE8=The Midnight Playboy waltz
TTITLE9=Je veux marier
TTITLE10=Bosco stomp
TTITLE11=Fond culottw two step
EXTD=
EXTT0=
EXTT1=
EXTT2=
EXTT3=
EXTT4=
EXTT5=
EXTT6=
EXTT7=
EXTT8=
EXTT9=
EXTT10=
EXTT11=
PLAYORDER=
